<?xml version="1.0" encoding="UTF-8" standalone="no"?>
<!DOCTYPE svg PUBLIC "-//W3C//DTD SVG 1.1//EN"
 "http://www.w3.org/Graphics/SVG/1.1/DTD/svg11.dtd">
<!-- Generated by graphviz version 2.26.3 (20100126.1600)
 -->
<!-- Title: models_diagram Pages: 1 -->
<svg width="1040pt" height="800pt"
 viewBox="0.00 0.00 1040.00 800.00" xmlns="http://www.w3.org/2000/svg" xmlns:xlink="http://www.w3.org/1999/xlink">
<g id="graph1" class="graph" transform="scale(1 1) rotate(0) translate(4 796)">
<title>models_diagram</title>
<polygon fill="white" stroke="white" points="-4,5 -4,-796 1037,-796 1037,5 -4,5"/>
<!-- _diagram_info -->
<g id="node1" class="node"><title>_diagram_info</title>
<text text-anchor="start" x="8" y="-633.8" font-family="Times Roman,serif" font-size="13.00">Models diagram</text>
<text text-anchor="start" x="8" y="-616.8" font-family="Times Roman,serif" font-size="13.00">Date: May 15 2012 &#45; 19:13</text>
<text text-anchor="start" x="8" y="-599.8" font-family="Times Roman,serif" font-size="13.00">Migration version: 20120512121323</text>
<text text-anchor="start" x="8" y="-582.8" font-family="Times Roman,serif" font-size="13.00">Generated by RailRoady 1.0.7</text>
<text text-anchor="start" x="8" y="-565.8" font-family="Times Roman,serif" font-size="13.00">http://railroady.prestonlee.com</text>
</g>
<!-- Account -->
<g id="node2" class="node"><title>Account</title>
<polyline fill="none" stroke="black" points="462,-415 612,-415 "/>
<path fill="none" stroke="black" d="M612,-415C618,-415 624,-421 624,-427"/>
<polyline fill="none" stroke="black" points="624,-427 624,-779 "/>
<path fill="none" stroke="black" d="M624,-779C624,-785 618,-791 612,-791"/>
<polyline fill="none" stroke="black" points="612,-791 462,-791 "/>
<path fill="none" stroke="black" d="M462,-791C456,-791 450,-785 450,-779"/>
<polyline fill="none" stroke="black" points="450,-779 450,-427 "/>
<path fill="none" stroke="black" d="M450,-427C450,-421 456,-415 462,-415"/>
<text text-anchor="middle" x="537" y="-774.4" font-family="Times Roman,serif" font-size="14.00">Account</text>
<polyline fill="none" stroke="black" points="450,-765 624,-765 "/>
<text text-anchor="start" x="458" y="-748.4" font-family="Times Roman,serif" font-size="14.00">cpf :string</text>
<text text-anchor="start" x="458" y="-730.4" font-family="Times Roman,serif" font-size="14.00">address :string</text>
<text text-anchor="start" x="458" y="-712.4" font-family="Times Roman,serif" font-size="14.00">number :string</text>
<text text-anchor="start" x="458" y="-694.4" font-family="Times Roman,serif" font-size="14.00">complement :string</text>
<text text-anchor="start" x="458" y="-676.4" font-family="Times Roman,serif" font-size="14.00">neighborhood :string</text>
<text text-anchor="start" x="458" y="-658.4" font-family="Times Roman,serif" font-size="14.00">city :string</text>
<text text-anchor="start" x="458" y="-640.4" font-family="Times Roman,serif" font-size="14.00">state :string</text>
<text text-anchor="start" x="458" y="-622.4" font-family="Times Roman,serif" font-size="14.00">country :string</text>
<text text-anchor="start" x="458" y="-604.4" font-family="Times Roman,serif" font-size="14.00">created_at :datetime</text>
<text text-anchor="start" x="458" y="-586.4" font-family="Times Roman,serif" font-size="14.00">updated_at :datetime</text>
<text text-anchor="start" x="458" y="-568.4" font-family="Times Roman,serif" font-size="14.00">sex :string</text>
<text text-anchor="start" x="458" y="-550.4" font-family="Times Roman,serif" font-size="14.00">rg :string</text>
<text text-anchor="start" x="458" y="-532.4" font-family="Times Roman,serif" font-size="14.00">birth_certificate :string</text>
<text text-anchor="start" x="458" y="-514.4" font-family="Times Roman,serif" font-size="14.00">ric :string</text>
<text text-anchor="start" x="458" y="-496.4" font-family="Times Roman,serif" font-size="14.00">age :integer</text>
<text text-anchor="start" x="458" y="-478.4" font-family="Times Roman,serif" font-size="14.00">birth :date</text>
<text text-anchor="start" x="458" y="-460.4" font-family="Times Roman,serif" font-size="14.00">mother_name :string</text>
<text text-anchor="start" x="458" y="-442.4" font-family="Times Roman,serif" font-size="14.00">place_of_birth :string</text>
<text text-anchor="start" x="458" y="-424.4" font-family="Times Roman,serif" font-size="14.00">civil_status :string</text>
</g>
<!-- Telephone -->
<g id="node5" class="node"><title>Telephone</title>
<polyline fill="none" stroke="black" points="347,-145 497,-145 "/>
<path fill="none" stroke="black" d="M497,-145C503,-145 509,-151 509,-157"/>
<polyline fill="none" stroke="black" points="509,-157 509,-329 "/>
<path fill="none" stroke="black" d="M509,-329C509,-335 503,-341 497,-341"/>
<polyline fill="none" stroke="black" points="497,-341 347,-341 "/>
<path fill="none" stroke="black" d="M347,-341C341,-341 335,-335 335,-329"/>
<polyline fill="none" stroke="black" points="335,-329 335,-157 "/>
<path fill="none" stroke="black" d="M335,-157C335,-151 341,-145 347,-145"/>
<text text-anchor="middle" x="422" y="-324.4" font-family="Times Roman,serif" font-size="14.00">Telephone</text>
<polyline fill="none" stroke="black" points="335,-315 509,-315 "/>
<text text-anchor="start" x="343" y="-298.4" font-family="Times Roman,serif" font-size="14.00">ddd :string</text>
<text text-anchor="start" x="343" y="-280.4" font-family="Times Roman,serif" font-size="14.00">tel :string</text>
<text text-anchor="start" x="343" y="-262.4" font-family="Times Roman,serif" font-size="14.00">branch_line :string</text>
<text text-anchor="start" x="343" y="-244.4" font-family="Times Roman,serif" font-size="14.00">published :boolean</text>
<text text-anchor="start" x="343" y="-226.4" font-family="Times Roman,serif" font-size="14.00">enabled :boolean</text>
<text text-anchor="start" x="343" y="-208.4" font-family="Times Roman,serif" font-size="14.00">published_at :datetime</text>
<text text-anchor="start" x="343" y="-190.4" font-family="Times Roman,serif" font-size="14.00">deleted_at :datetime</text>
<text text-anchor="start" x="343" y="-172.4" font-family="Times Roman,serif" font-size="14.00">created_at :datetime</text>
<text text-anchor="start" x="343" y="-154.4" font-family="Times Roman,serif" font-size="14.00">updated_at :datetime</text>
</g>
<!-- Account&#45;&gt;Telephone -->
<g id="edge6" class="edge"><title>Account&#45;&gt;Telephone</title>
<path fill="none" stroke="#af38e0" d="M473.76,-405.031C467.878,-386.618 462.077,-368.459 456.607,-351.334"/>
<polygon fill="#af38e0" stroke="#af38e0" points="473.847,-405.303 472.603,-416.198 475.368,-410.066 476.89,-414.829 476.89,-414.829 476.89,-414.829 475.368,-410.066 481.176,-413.459 473.847,-405.303 473.847,-405.303"/>
<polygon fill="#af38e0" stroke="#af38e0" points="456.469,-350.902 457.712,-340.007 454.947,-346.14 453.426,-341.377 453.426,-341.377 453.426,-341.377 454.947,-346.14 449.139,-342.746 456.469,-350.902 456.469,-350.902"/>
</g>
<!-- AccountsTelephone -->
<g id="node6" class="node"><title>AccountsTelephone</title>
<polyline fill="none" stroke="black" points="409.5,-1 550.5,-1 "/>
<path fill="none" stroke="black" d="M550.5,-1C556.5,-1 562.5,-7 562.5,-13"/>
<polyline fill="none" stroke="black" points="562.5,-13 562.5,-59 "/>
<path fill="none" stroke="black" d="M562.5,-59C562.5,-65 556.5,-71 550.5,-71"/>
<polyline fill="none" stroke="black" points="550.5,-71 409.5,-71 "/>
<path fill="none" stroke="black" d="M409.5,-71C403.5,-71 397.5,-65 397.5,-59"/>
<polyline fill="none" stroke="black" points="397.5,-59 397.5,-13 "/>
<path fill="none" stroke="black" d="M397.5,-13C397.5,-7 403.5,-1 409.5,-1"/>
<text text-anchor="middle" x="480" y="-54.4" font-family="Times Roman,serif" font-size="14.00">AccountsTelephone</text>
<polyline fill="none" stroke="black" points="397.5,-45 562.5,-45 "/>
<text text-anchor="start" x="405.5" y="-28.4" font-family="Times Roman,serif" font-size="14.00">created_at :datetime</text>
<text text-anchor="start" x="405.5" y="-10.4" font-family="Times Roman,serif" font-size="14.00">updated_at :datetime</text>
</g>
<!-- Account&#45;&gt;AccountsTelephone -->
<g id="edge4" class="edge"><title>Account&#45;&gt;AccountsTelephone</title>
<path fill="none" stroke="#7cec9d" d="M549.354,-406.947C550.148,-314.782 543.81,-204.251 518,-108 515.5,-98.6784 511.631,-89.2072 507.3,-80.3293"/>
<ellipse fill="none" stroke="#7cec9d" cx="549.31" cy="-410.958" rx="4" ry="4"/>
<polygon fill="#7cec9d" stroke="#7cec9d" points="507.239,-80.2122 506.658,-69.2617 504.949,-75.7679 502.658,-71.3236 502.658,-71.3236 502.658,-71.3236 504.949,-75.7679 498.658,-73.3854 507.239,-80.2122 507.239,-80.2122"/>
</g>
<!-- User -->
<g id="node8" class="node"><title>User</title>
<polyline fill="none" stroke="black" points="674,-109 850,-109 "/>
<path fill="none" stroke="black" d="M850,-109C856,-109 862,-115 862,-121"/>
<polyline fill="none" stroke="black" points="862,-121 862,-365 "/>
<path fill="none" stroke="black" d="M862,-365C862,-371 856,-377 850,-377"/>
<polyline fill="none" stroke="black" points="850,-377 674,-377 "/>
<path fill="none" stroke="black" d="M674,-377C668,-377 662,-371 662,-365"/>
<polyline fill="none" stroke="black" points="662,-365 662,-121 "/>
<path fill="none" stroke="black" d="M662,-121C662,-115 668,-109 674,-109"/>
<text text-anchor="middle" x="762" y="-360.4" font-family="Times Roman,serif" font-size="14.00">User</text>
<polyline fill="none" stroke="black" points="662,-351 862,-351 "/>
<text text-anchor="start" x="670" y="-334.4" font-family="Times Roman,serif" font-size="14.00">name :string</text>
<text text-anchor="start" x="670" y="-316.4" font-family="Times Roman,serif" font-size="14.00">login :string</text>
<text text-anchor="start" x="670" y="-298.4" font-family="Times Roman,serif" font-size="14.00">email :string</text>
<text text-anchor="start" x="670" y="-280.4" font-family="Times Roman,serif" font-size="14.00">crypted_password :string</text>
<text text-anchor="start" x="670" y="-262.4" font-family="Times Roman,serif" font-size="14.00">password_salt :string</text>
<text text-anchor="start" x="670" y="-244.4" font-family="Times Roman,serif" font-size="14.00">persistence_token :string</text>
<text text-anchor="start" x="670" y="-226.4" font-family="Times Roman,serif" font-size="14.00">last_request_at :datetime</text>
<text text-anchor="start" x="670" y="-208.4" font-family="Times Roman,serif" font-size="14.00">current_login_at :datetime</text>
<text text-anchor="start" x="670" y="-190.4" font-family="Times Roman,serif" font-size="14.00">last_login_at :datetime</text>
<text text-anchor="start" x="670" y="-172.4" font-family="Times Roman,serif" font-size="14.00">current_login_ip :string</text>
<text text-anchor="start" x="670" y="-154.4" font-family="Times Roman,serif" font-size="14.00">last_login_ip :string</text>
<text text-anchor="start" x="670" y="-136.4" font-family="Times Roman,serif" font-size="14.00">created_at :datetime</text>
<text text-anchor="start" x="670" y="-118.4" font-family="Times Roman,serif" font-size="14.00">updated_at :datetime</text>
</g>
<!-- Account&#45;&gt;User -->
<g id="edge2" class="edge"><title>Account&#45;&gt;User</title>
<path fill="none" stroke="#7b0f8c" d="M628.625,-421.096C630.08,-418.708 631.538,-416.341 633,-414 640.561,-401.89 648.755,-389.567 657.223,-377.366"/>
<ellipse fill="none" stroke="#7b0f8c" cx="626.339" cy="-424.893" rx="4.00002" ry="4.00002"/>
<ellipse fill="#7b0f8c" stroke="#7b0f8c" cx="659.661" cy="-373.88" rx="4.00002" ry="4.00002"/>
</g>
<!-- TypeTelephone -->
<g id="node3" class="node"><title>TypeTelephone</title>
<polyline fill="none" stroke="black" points="279.5,-550 420.5,-550 "/>
<path fill="none" stroke="black" d="M420.5,-550C426.5,-550 432.5,-556 432.5,-562"/>
<polyline fill="none" stroke="black" points="432.5,-562 432.5,-644 "/>
<path fill="none" stroke="black" d="M432.5,-644C432.5,-650 426.5,-656 420.5,-656"/>
<polyline fill="none" stroke="black" points="420.5,-656 279.5,-656 "/>
<path fill="none" stroke="black" d="M279.5,-656C273.5,-656 267.5,-650 267.5,-644"/>
<polyline fill="none" stroke="black" points="267.5,-644 267.5,-562 "/>
<path fill="none" stroke="black" d="M267.5,-562C267.5,-556 273.5,-550 279.5,-550"/>
<text text-anchor="middle" x="350" y="-639.4" font-family="Times Roman,serif" font-size="14.00">TypeTelephone</text>
<polyline fill="none" stroke="black" points="267.5,-630 432.5,-630 "/>
<text text-anchor="start" x="275.5" y="-613.4" font-family="Times Roman,serif" font-size="14.00">name :string</text>
<text text-anchor="start" x="275.5" y="-595.4" font-family="Times Roman,serif" font-size="14.00">enabled :boolean</text>
<text text-anchor="start" x="275.5" y="-577.4" font-family="Times Roman,serif" font-size="14.00">created_at :datetime</text>
<text text-anchor="start" x="275.5" y="-559.4" font-family="Times Roman,serif" font-size="14.00">updated_at :datetime</text>
</g>
<!-- TypeTelephone&#45;&gt;Telephone -->
<g id="edge8" class="edge"><title>TypeTelephone&#45;&gt;Telephone</title>
<path fill="none" stroke="#5539f8" d="M362.205,-541.975C372.635,-489.826 387.89,-413.548 400.382,-351.092"/>
<ellipse fill="none" stroke="#5539f8" cx="361.408" cy="-545.958" rx="4.00001" ry="4.00001"/>
<polygon fill="#5539f8" stroke="#5539f8" points="400.4,-350.999 406.774,-342.076 401.381,-346.096 402.361,-341.193 402.361,-341.193 402.361,-341.193 401.381,-346.096 397.949,-340.311 400.4,-350.999 400.4,-350.999"/>
</g>
<!-- Company -->
<g id="node4" class="node"><title>Company</title>
<polyline fill="none" stroke="black" points="835.5,-415 1020.5,-415 "/>
<path fill="none" stroke="black" d="M1020.5,-415C1026.5,-415 1032.5,-421 1032.5,-427"/>
<polyline fill="none" stroke="black" points="1032.5,-427 1032.5,-779 "/>
<path fill="none" stroke="black" d="M1032.5,-779C1032.5,-785 1026.5,-791 1020.5,-791"/>
<polyline fill="none" stroke="black" points="1020.5,-791 835.5,-791 "/>
<path fill="none" stroke="black" d="M835.5,-791C829.5,-791 823.5,-785 823.5,-779"/>
<polyline fill="none" stroke="black" points="823.5,-779 823.5,-427 "/>
<path fill="none" stroke="black" d="M823.5,-427C823.5,-421 829.5,-415 835.5,-415"/>
<text text-anchor="middle" x="928" y="-774.4" font-family="Times Roman,serif" font-size="14.00">Company</text>
<polyline fill="none" stroke="black" points="823.5,-765 1032.5,-765 "/>
<text text-anchor="start" x="831.5" y="-748.4" font-family="Times Roman,serif" font-size="14.00">name :string</text>
<text text-anchor="start" x="831.5" y="-730.4" font-family="Times Roman,serif" font-size="14.00">brand_name :string</text>
<text text-anchor="start" x="831.5" y="-712.4" font-family="Times Roman,serif" font-size="14.00">cnpj :string</text>
<text text-anchor="start" x="831.5" y="-694.4" font-family="Times Roman,serif" font-size="14.00">state_inscription :string</text>
<text text-anchor="start" x="831.5" y="-676.4" font-family="Times Roman,serif" font-size="14.00">municipal_inscription :string</text>
<text text-anchor="start" x="831.5" y="-658.4" font-family="Times Roman,serif" font-size="14.00">address :string</text>
<text text-anchor="start" x="831.5" y="-640.4" font-family="Times Roman,serif" font-size="14.00">number :integer</text>
<text text-anchor="start" x="831.5" y="-622.4" font-family="Times Roman,serif" font-size="14.00">complement :string</text>
<text text-anchor="start" x="831.5" y="-604.4" font-family="Times Roman,serif" font-size="14.00">neighborhood :string</text>
<text text-anchor="start" x="831.5" y="-586.4" font-family="Times Roman,serif" font-size="14.00">city :string</text>
<text text-anchor="start" x="831.5" y="-568.4" font-family="Times Roman,serif" font-size="14.00">state :string</text>
<text text-anchor="start" x="831.5" y="-550.4" font-family="Times Roman,serif" font-size="14.00">country :string</text>
<text text-anchor="start" x="831.5" y="-532.4" font-family="Times Roman,serif" font-size="14.00">site :string</text>
<text text-anchor="start" x="831.5" y="-514.4" font-family="Times Roman,serif" font-size="14.00">published :boolean</text>
<text text-anchor="start" x="831.5" y="-496.4" font-family="Times Roman,serif" font-size="14.00">published_at :datetime</text>
<text text-anchor="start" x="831.5" y="-478.4" font-family="Times Roman,serif" font-size="14.00">enabled :boolean</text>
<text text-anchor="start" x="831.5" y="-460.4" font-family="Times Roman,serif" font-size="14.00">deleted_at :datetime</text>
<text text-anchor="start" x="831.5" y="-442.4" font-family="Times Roman,serif" font-size="14.00">created_at :datetime</text>
<text text-anchor="start" x="831.5" y="-424.4" font-family="Times Roman,serif" font-size="14.00">updated_at :datetime</text>
</g>
<!-- UsersCompany -->
<g id="node7" class="node"><title>UsersCompany</title>
<polyline fill="none" stroke="black" points="764.5,-1 905.5,-1 "/>
<path fill="none" stroke="black" d="M905.5,-1C911.5,-1 917.5,-7 917.5,-13"/>
<polyline fill="none" stroke="black" points="917.5,-13 917.5,-59 "/>
<path fill="none" stroke="black" d="M917.5,-59C917.5,-65 911.5,-71 905.5,-71"/>
<polyline fill="none" stroke="black" points="905.5,-71 764.5,-71 "/>
<path fill="none" stroke="black" d="M764.5,-71C758.5,-71 752.5,-65 752.5,-59"/>
<polyline fill="none" stroke="black" points="752.5,-59 752.5,-13 "/>
<path fill="none" stroke="black" d="M752.5,-13C752.5,-7 758.5,-1 764.5,-1"/>
<text text-anchor="middle" x="835" y="-54.4" font-family="Times Roman,serif" font-size="14.00">UsersCompany</text>
<polyline fill="none" stroke="black" points="752.5,-45 917.5,-45 "/>
<text text-anchor="start" x="760.5" y="-28.4" font-family="Times Roman,serif" font-size="14.00">created_at :datetime</text>
<text text-anchor="start" x="760.5" y="-10.4" font-family="Times Roman,serif" font-size="14.00">updated_at :datetime</text>
</g>
<!-- Company&#45;&gt;UsersCompany -->
<g id="edge10" class="edge"><title>Company&#45;&gt;UsersCompany</title>
<path fill="none" stroke="#de890f" d="M921.152,-406.789C913.966,-314.589 899.581,-204.075 871,-108 868.249,-98.7541 864.365,-89.2599 860.158,-80.3234"/>
<ellipse fill="none" stroke="#de890f" cx="921.458" cy="-410.814" rx="4" ry="4"/>
<polygon fill="#de890f" stroke="#de890f" points="860.107,-80.2188 859.729,-69.2594 857.899,-75.7325 855.692,-71.2463 855.692,-71.2463 855.692,-71.2463 857.899,-75.7325 851.654,-73.2332 860.107,-80.2188 860.107,-80.2188"/>
</g>
<!-- Company&#45;&gt;User -->
<g id="edge12" class="edge"><title>Company&#45;&gt;User</title>
<path fill="none" stroke="#eda344" d="M837.016,-405.685C834.067,-399.289 831.131,-392.923 828.224,-386.618"/>
<polygon fill="#eda344" stroke="#eda344" points="837.045,-405.748 837.146,-416.713 839.138,-410.288 841.232,-414.829 841.232,-414.829 841.232,-414.829 839.138,-410.288 845.319,-412.944 837.045,-405.748 837.045,-405.748"/>
<polygon fill="#eda344" stroke="#eda344" points="828.174,-386.511 828.073,-375.545 826.081,-381.97 823.987,-377.43 823.987,-377.43 823.987,-377.43 826.081,-381.97 819.901,-379.314 828.174,-386.511 828.174,-386.511"/>
</g>
<!-- Telephone&#45;&gt;AccountsTelephone -->
<g id="edge14" class="edge"><title>Telephone&#45;&gt;AccountsTelephone</title>
<path fill="none" stroke="#c1e92e" d="M451.635,-137.234C457.154,-117.536 462.643,-97.9472 467.301,-81.324"/>
<ellipse fill="none" stroke="#c1e92e" cx="450.551" cy="-141.104" rx="4.00001" ry="4.00001"/>
<polygon fill="#c1e92e" stroke="#c1e92e" points="467.388,-81.0116 474.419,-72.5966 468.737,-76.197 470.086,-71.3824 470.086,-71.3824 470.086,-71.3824 468.737,-76.197 465.753,-70.1683 467.388,-81.0116 467.388,-81.0116"/>
</g>
<!-- User&#45;&gt;UsersCompany -->
<g id="edge16" class="edge"><title>User&#45;&gt;UsersCompany</title>
<path fill="none" stroke="#556267" d="M811.945,-101.375C814.455,-94.2574 816.867,-87.4194 819.122,-81.0246"/>
<ellipse fill="none" stroke="#556267" cx="810.593" cy="-105.208" rx="4.00001" ry="4.00001"/>
<polygon fill="#556267" stroke="#556267" points="819.203,-80.7948 826.772,-72.8607 820.866,-76.0794 822.529,-71.3641 822.529,-71.3641 822.529,-71.3641 820.866,-76.0794 818.285,-69.8674 819.203,-80.7948 819.203,-80.7948"/>
</g>
<!-- TypeUser -->
<g id="node9" class="node"><title>TypeUser</title>
<polyline fill="none" stroke="black" points="653.5,-550 794.5,-550 "/>
<path fill="none" stroke="black" d="M794.5,-550C800.5,-550 806.5,-556 806.5,-562"/>
<polyline fill="none" stroke="black" points="806.5,-562 806.5,-644 "/>
<path fill="none" stroke="black" d="M806.5,-644C806.5,-650 800.5,-656 794.5,-656"/>
<polyline fill="none" stroke="black" points="794.5,-656 653.5,-656 "/>
<path fill="none" stroke="black" d="M653.5,-656C647.5,-656 641.5,-650 641.5,-644"/>
<polyline fill="none" stroke="black" points="641.5,-644 641.5,-562 "/>
<path fill="none" stroke="black" d="M641.5,-562C641.5,-556 647.5,-550 653.5,-550"/>
<text text-anchor="middle" x="724" y="-639.4" font-family="Times Roman,serif" font-size="14.00">TypeUser</text>
<polyline fill="none" stroke="black" points="641.5,-630 806.5,-630 "/>
<text text-anchor="start" x="649.5" y="-613.4" font-family="Times Roman,serif" font-size="14.00">name :string</text>
<text text-anchor="start" x="649.5" y="-595.4" font-family="Times Roman,serif" font-size="14.00">enabled :boolean</text>
<text text-anchor="start" x="649.5" y="-577.4" font-family="Times Roman,serif" font-size="14.00">created_at :datetime</text>
<text text-anchor="start" x="649.5" y="-559.4" font-family="Times Roman,serif" font-size="14.00">updated_at :datetime</text>
</g>
<!-- TypeUser&#45;&gt;User -->
<g id="edge18" class="edge"><title>TypeUser&#45;&gt;User</title>
<path fill="none" stroke="#1d82c0" d="M730.472,-541.685C734.948,-499.286 741.096,-441.038 746.775,-387.233"/>
<ellipse fill="none" stroke="#1d82c0" cx="730.027" cy="-545.903" rx="4" ry="4"/>
<polygon fill="#1d82c0" stroke="#1d82c0" points="746.78,-387.187 752.305,-377.715 747.305,-382.215 747.83,-377.243 747.83,-377.243 747.83,-377.243 747.305,-382.215 743.355,-376.77 746.78,-387.187 746.78,-387.187"/>
</g>
</g>
</svg>
