<?xml version="1.0" encoding="UTF-8" standalone="no"?>
<!DOCTYPE svg PUBLIC "-//W3C//DTD SVG 1.1//EN"
 "http://www.w3.org/Graphics/SVG/1.1/DTD/svg11.dtd">
<!-- Generated by graphviz version 2.26.3 (20100126.1600)
 -->
<!-- Title: models_diagram Pages: 1 -->
<svg width="1048pt" height="1398pt"
 viewBox="0.00 0.00 1048.00 1398.00" xmlns="http://www.w3.org/2000/svg" xmlns:xlink="http://www.w3.org/1999/xlink">
<g id="graph1" class="graph" transform="scale(1 1) rotate(0) translate(4 1394)">
<title>models_diagram</title>
<polygon fill="white" stroke="white" points="-4,5 -4,-1394 1045,-1394 1045,5 -4,5"/>
<!-- _diagram_info -->
<g id="node1" class="node"><title>_diagram_info</title>
<text text-anchor="start" x="8" y="-1213.8" font-family="Times Roman,serif" font-size="13.00">Models diagram</text>
<text text-anchor="start" x="8" y="-1196.8" font-family="Times Roman,serif" font-size="13.00">Date: May 30 2012 &#45; 17:53</text>
<text text-anchor="start" x="8" y="-1179.8" font-family="Times Roman,serif" font-size="13.00">Migration version: 20120530195757</text>
<text text-anchor="start" x="8" y="-1162.8" font-family="Times Roman,serif" font-size="13.00">Generated by RailRoady 1.0.7</text>
<text text-anchor="start" x="8" y="-1145.8" font-family="Times Roman,serif" font-size="13.00">http://railroady.prestonlee.com</text>
</g>
<!-- Account -->
<g id="node2" class="node"><title>Account</title>
<polyline fill="none" stroke="black" points="279.5,-977 452.5,-977 "/>
<path fill="none" stroke="black" d="M452.5,-977C458.5,-977 464.5,-983 464.5,-989"/>
<polyline fill="none" stroke="black" points="464.5,-989 464.5,-1377 "/>
<path fill="none" stroke="black" d="M464.5,-1377C464.5,-1383 458.5,-1389 452.5,-1389"/>
<polyline fill="none" stroke="black" points="452.5,-1389 279.5,-1389 "/>
<path fill="none" stroke="black" d="M279.5,-1389C273.5,-1389 267.5,-1383 267.5,-1377"/>
<polyline fill="none" stroke="black" points="267.5,-1377 267.5,-989 "/>
<path fill="none" stroke="black" d="M267.5,-989C267.5,-983 273.5,-977 279.5,-977"/>
<text text-anchor="middle" x="366" y="-1372.4" font-family="Times Roman,serif" font-size="14.00">Account</text>
<polyline fill="none" stroke="black" points="267.5,-1363 464.5,-1363 "/>
<text text-anchor="start" x="275.5" y="-1346.4" font-family="Times Roman,serif" font-size="14.00">cpf :string</text>
<text text-anchor="start" x="275.5" y="-1328.4" font-family="Times Roman,serif" font-size="14.00">address :string</text>
<text text-anchor="start" x="275.5" y="-1310.4" font-family="Times Roman,serif" font-size="14.00">number :string</text>
<text text-anchor="start" x="275.5" y="-1292.4" font-family="Times Roman,serif" font-size="14.00">complement :string</text>
<text text-anchor="start" x="275.5" y="-1274.4" font-family="Times Roman,serif" font-size="14.00">neighborhood :string</text>
<text text-anchor="start" x="275.5" y="-1256.4" font-family="Times Roman,serif" font-size="14.00">city :string</text>
<text text-anchor="start" x="275.5" y="-1238.4" font-family="Times Roman,serif" font-size="14.00">state :string</text>
<text text-anchor="start" x="275.5" y="-1220.4" font-family="Times Roman,serif" font-size="14.00">country :string</text>
<text text-anchor="start" x="275.5" y="-1202.4" font-family="Times Roman,serif" font-size="14.00">created_at :datetime</text>
<text text-anchor="start" x="275.5" y="-1184.4" font-family="Times Roman,serif" font-size="14.00">updated_at :datetime</text>
<text text-anchor="start" x="275.5" y="-1166.4" font-family="Times Roman,serif" font-size="14.00">sex :string</text>
<text text-anchor="start" x="275.5" y="-1148.4" font-family="Times Roman,serif" font-size="14.00">rg :string</text>
<text text-anchor="start" x="275.5" y="-1130.4" font-family="Times Roman,serif" font-size="14.00">birth_certificate :string</text>
<text text-anchor="start" x="275.5" y="-1112.4" font-family="Times Roman,serif" font-size="14.00">ric :string</text>
<text text-anchor="start" x="275.5" y="-1094.4" font-family="Times Roman,serif" font-size="14.00">age :integer</text>
<text text-anchor="start" x="275.5" y="-1076.4" font-family="Times Roman,serif" font-size="14.00">birth :date</text>
<text text-anchor="start" x="275.5" y="-1058.4" font-family="Times Roman,serif" font-size="14.00">mother_name :string</text>
<text text-anchor="start" x="275.5" y="-1040.4" font-family="Times Roman,serif" font-size="14.00">place_of_birth :string</text>
<text text-anchor="start" x="275.5" y="-1022.4" font-family="Times Roman,serif" font-size="14.00">civil_status :string</text>
<text text-anchor="start" x="275.5" y="-1004.4" font-family="Times Roman,serif" font-size="14.00">cover_image_uid :string</text>
<text text-anchor="start" x="275.5" y="-986.4" font-family="Times Roman,serif" font-size="14.00">cover_image_name :string</text>
</g>
<!-- Company -->
<g id="node4" class="node"><title>Company</title>
<polyline fill="none" stroke="black" points="405.5,-509 590.5,-509 "/>
<path fill="none" stroke="black" d="M590.5,-509C596.5,-509 602.5,-515 602.5,-521"/>
<polyline fill="none" stroke="black" points="602.5,-521 602.5,-909 "/>
<path fill="none" stroke="black" d="M602.5,-909C602.5,-915 596.5,-921 590.5,-921"/>
<polyline fill="none" stroke="black" points="590.5,-921 405.5,-921 "/>
<path fill="none" stroke="black" d="M405.5,-921C399.5,-921 393.5,-915 393.5,-909"/>
<polyline fill="none" stroke="black" points="393.5,-909 393.5,-521 "/>
<path fill="none" stroke="black" d="M393.5,-521C393.5,-515 399.5,-509 405.5,-509"/>
<text text-anchor="middle" x="498" y="-904.4" font-family="Times Roman,serif" font-size="14.00">Company</text>
<polyline fill="none" stroke="black" points="393.5,-895 602.5,-895 "/>
<text text-anchor="start" x="401.5" y="-878.4" font-family="Times Roman,serif" font-size="14.00">name :string</text>
<text text-anchor="start" x="401.5" y="-860.4" font-family="Times Roman,serif" font-size="14.00">brand_name :string</text>
<text text-anchor="start" x="401.5" y="-842.4" font-family="Times Roman,serif" font-size="14.00">cnpj :string</text>
<text text-anchor="start" x="401.5" y="-824.4" font-family="Times Roman,serif" font-size="14.00">state_inscription :string</text>
<text text-anchor="start" x="401.5" y="-806.4" font-family="Times Roman,serif" font-size="14.00">municipal_inscription :string</text>
<text text-anchor="start" x="401.5" y="-788.4" font-family="Times Roman,serif" font-size="14.00">address :string</text>
<text text-anchor="start" x="401.5" y="-770.4" font-family="Times Roman,serif" font-size="14.00">number :integer</text>
<text text-anchor="start" x="401.5" y="-752.4" font-family="Times Roman,serif" font-size="14.00">complement :string</text>
<text text-anchor="start" x="401.5" y="-734.4" font-family="Times Roman,serif" font-size="14.00">neighborhood :string</text>
<text text-anchor="start" x="401.5" y="-716.4" font-family="Times Roman,serif" font-size="14.00">city :string</text>
<text text-anchor="start" x="401.5" y="-698.4" font-family="Times Roman,serif" font-size="14.00">state :string</text>
<text text-anchor="start" x="401.5" y="-680.4" font-family="Times Roman,serif" font-size="14.00">country :string</text>
<text text-anchor="start" x="401.5" y="-662.4" font-family="Times Roman,serif" font-size="14.00">site :string</text>
<text text-anchor="start" x="401.5" y="-644.4" font-family="Times Roman,serif" font-size="14.00">published :boolean</text>
<text text-anchor="start" x="401.5" y="-626.4" font-family="Times Roman,serif" font-size="14.00">published_at :datetime</text>
<text text-anchor="start" x="401.5" y="-608.4" font-family="Times Roman,serif" font-size="14.00">enabled :boolean</text>
<text text-anchor="start" x="401.5" y="-590.4" font-family="Times Roman,serif" font-size="14.00">deleted_at :datetime</text>
<text text-anchor="start" x="401.5" y="-572.4" font-family="Times Roman,serif" font-size="14.00">created_at :datetime</text>
<text text-anchor="start" x="401.5" y="-554.4" font-family="Times Roman,serif" font-size="14.00">updated_at :datetime</text>
<text text-anchor="start" x="401.5" y="-536.4" font-family="Times Roman,serif" font-size="14.00">cover_image_uid :string</text>
<text text-anchor="start" x="401.5" y="-518.4" font-family="Times Roman,serif" font-size="14.00">cover_image_name :string</text>
</g>
<!-- Account&#45;&gt;Company -->
<g id="edge12" class="edge"><title>Account&#45;&gt;Company</title>
<path fill="none" stroke="#b79d2e" d="M426.985,-966.78C430.32,-954.958 433.671,-943.075 437.006,-931.253"/>
<polygon fill="#b79d2e" stroke="#b79d2e" points="426.9,-967.082 419.854,-975.485 425.543,-971.894 424.185,-976.707 424.185,-976.707 424.185,-976.707 425.543,-971.894 428.516,-977.928 426.9,-967.082 426.9,-967.082"/>
<polygon fill="#b79d2e" stroke="#b79d2e" points="437.087,-930.964 444.133,-922.561 438.444,-926.151 439.802,-921.339 439.802,-921.339 439.802,-921.339 438.444,-926.151 435.471,-920.118 437.087,-930.964 437.087,-930.964"/>
</g>
<!-- History -->
<g id="node6" class="node"><title>History</title>
<polyline fill="none" stroke="black" points="229.5,-300 386.5,-300 "/>
<path fill="none" stroke="black" d="M386.5,-300C392.5,-300 398.5,-306 398.5,-312"/>
<polyline fill="none" stroke="black" points="398.5,-312 398.5,-430 "/>
<path fill="none" stroke="black" d="M398.5,-430C398.5,-436 392.5,-442 386.5,-442"/>
<polyline fill="none" stroke="black" points="386.5,-442 229.5,-442 "/>
<path fill="none" stroke="black" d="M229.5,-442C223.5,-442 217.5,-436 217.5,-430"/>
<polyline fill="none" stroke="black" points="217.5,-430 217.5,-312 "/>
<path fill="none" stroke="black" d="M217.5,-312C217.5,-306 223.5,-300 229.5,-300"/>
<text text-anchor="middle" x="308" y="-425.4" font-family="Times Roman,serif" font-size="14.00">History</text>
<polyline fill="none" stroke="black" points="217.5,-416 398.5,-416 "/>
<text text-anchor="start" x="225.5" y="-399.4" font-family="Times Roman,serif" font-size="14.00">entry_date :datetime</text>
<text text-anchor="start" x="225.5" y="-381.4" font-family="Times Roman,serif" font-size="14.00">exit_date :datetime</text>
<text text-anchor="start" x="225.5" y="-363.4" font-family="Times Roman,serif" font-size="14.00">description :text</text>
<text text-anchor="start" x="225.5" y="-345.4" font-family="Times Roman,serif" font-size="14.00">prescription_drugs :text</text>
<text text-anchor="start" x="225.5" y="-327.4" font-family="Times Roman,serif" font-size="14.00">created_at :datetime</text>
<text text-anchor="start" x="225.5" y="-309.4" font-family="Times Roman,serif" font-size="14.00">updated_at :datetime</text>
</g>
<!-- Account&#45;&gt;History -->
<g id="edge8" class="edge"><title>Account&#45;&gt;History</title>
<path fill="none" stroke="#9e751c" d="M350.7,-968.793C338.602,-799.432 322.376,-572.262 313.829,-452.612"/>
<ellipse fill="none" stroke="#9e751c" cx="350.985" cy="-972.796" rx="4" ry="4"/>
<polygon fill="#9e751c" stroke="#9e751c" points="313.815,-452.402 317.591,-442.107 313.458,-447.415 313.102,-442.428 313.102,-442.428 313.102,-442.428 313.458,-447.415 308.613,-442.749 313.815,-452.402 313.815,-452.402"/>
</g>
<!-- Telephone -->
<g id="node7" class="node"><title>Telephone</title>
<polyline fill="none" stroke="black" points="610,-273 760,-273 "/>
<path fill="none" stroke="black" d="M760,-273C766,-273 772,-279 772,-285"/>
<polyline fill="none" stroke="black" points="772,-285 772,-457 "/>
<path fill="none" stroke="black" d="M772,-457C772,-463 766,-469 760,-469"/>
<polyline fill="none" stroke="black" points="760,-469 610,-469 "/>
<path fill="none" stroke="black" d="M610,-469C604,-469 598,-463 598,-457"/>
<polyline fill="none" stroke="black" points="598,-457 598,-285 "/>
<path fill="none" stroke="black" d="M598,-285C598,-279 604,-273 610,-273"/>
<text text-anchor="middle" x="685" y="-452.4" font-family="Times Roman,serif" font-size="14.00">Telephone</text>
<polyline fill="none" stroke="black" points="598,-443 772,-443 "/>
<text text-anchor="start" x="606" y="-426.4" font-family="Times Roman,serif" font-size="14.00">ddd :string</text>
<text text-anchor="start" x="606" y="-408.4" font-family="Times Roman,serif" font-size="14.00">tel :string</text>
<text text-anchor="start" x="606" y="-390.4" font-family="Times Roman,serif" font-size="14.00">branch_line :string</text>
<text text-anchor="start" x="606" y="-372.4" font-family="Times Roman,serif" font-size="14.00">published :boolean</text>
<text text-anchor="start" x="606" y="-354.4" font-family="Times Roman,serif" font-size="14.00">enabled :boolean</text>
<text text-anchor="start" x="606" y="-336.4" font-family="Times Roman,serif" font-size="14.00">published_at :datetime</text>
<text text-anchor="start" x="606" y="-318.4" font-family="Times Roman,serif" font-size="14.00">deleted_at :datetime</text>
<text text-anchor="start" x="606" y="-300.4" font-family="Times Roman,serif" font-size="14.00">created_at :datetime</text>
<text text-anchor="start" x="606" y="-282.4" font-family="Times Roman,serif" font-size="14.00">updated_at :datetime</text>
</g>
<!-- Account&#45;&gt;Telephone -->
<g id="edge6" class="edge"><title>Account&#45;&gt;Telephone</title>
<path fill="none" stroke="#939455" d="M470.889,-1100.76C522.312,-1054.2 579.767,-991.443 611,-922 686.792,-753.486 616.966,-689.975 649,-508 650.645,-498.653 652.613,-489.01 654.768,-479.374"/>
<ellipse fill="none" stroke="#939455" cx="467.627" cy="-1103.69" rx="4.00002" ry="4.00002"/>
<polygon fill="#939455" stroke="#939455" points="654.833,-479.091 661.461,-470.356 655.955,-474.219 657.076,-469.346 657.076,-469.346 657.076,-469.346 655.955,-474.219 652.691,-468.337 654.833,-479.091 654.833,-479.091"/>
</g>
<!-- User -->
<g id="node8" class="node"><title>User</title>
<polyline fill="none" stroke="black" points="670,-581 846,-581 "/>
<path fill="none" stroke="black" d="M846,-581C852,-581 858,-587 858,-593"/>
<polyline fill="none" stroke="black" points="858,-593 858,-837 "/>
<path fill="none" stroke="black" d="M858,-837C858,-843 852,-849 846,-849"/>
<polyline fill="none" stroke="black" points="846,-849 670,-849 "/>
<path fill="none" stroke="black" d="M670,-849C664,-849 658,-843 658,-837"/>
<polyline fill="none" stroke="black" points="658,-837 658,-593 "/>
<path fill="none" stroke="black" d="M658,-593C658,-587 664,-581 670,-581"/>
<text text-anchor="middle" x="758" y="-832.4" font-family="Times Roman,serif" font-size="14.00">User</text>
<polyline fill="none" stroke="black" points="658,-823 858,-823 "/>
<text text-anchor="start" x="666" y="-806.4" font-family="Times Roman,serif" font-size="14.00">name :string</text>
<text text-anchor="start" x="666" y="-788.4" font-family="Times Roman,serif" font-size="14.00">login :string</text>
<text text-anchor="start" x="666" y="-770.4" font-family="Times Roman,serif" font-size="14.00">email :string</text>
<text text-anchor="start" x="666" y="-752.4" font-family="Times Roman,serif" font-size="14.00">crypted_password :string</text>
<text text-anchor="start" x="666" y="-734.4" font-family="Times Roman,serif" font-size="14.00">password_salt :string</text>
<text text-anchor="start" x="666" y="-716.4" font-family="Times Roman,serif" font-size="14.00">persistence_token :string</text>
<text text-anchor="start" x="666" y="-698.4" font-family="Times Roman,serif" font-size="14.00">last_request_at :datetime</text>
<text text-anchor="start" x="666" y="-680.4" font-family="Times Roman,serif" font-size="14.00">current_login_at :datetime</text>
<text text-anchor="start" x="666" y="-662.4" font-family="Times Roman,serif" font-size="14.00">last_login_at :datetime</text>
<text text-anchor="start" x="666" y="-644.4" font-family="Times Roman,serif" font-size="14.00">current_login_ip :string</text>
<text text-anchor="start" x="666" y="-626.4" font-family="Times Roman,serif" font-size="14.00">last_login_ip :string</text>
<text text-anchor="start" x="666" y="-608.4" font-family="Times Roman,serif" font-size="14.00">created_at :datetime</text>
<text text-anchor="start" x="666" y="-590.4" font-family="Times Roman,serif" font-size="14.00">updated_at :datetime</text>
</g>
<!-- Account&#45;&gt;User -->
<g id="edge2" class="edge"><title>Account&#45;&gt;User</title>
<path fill="none" stroke="#757759" d="M471.417,-1115.16C528.042,-1074.74 595.891,-1019.41 644,-958 667.743,-927.691 688.035,-891.634 704.63,-856.696"/>
<ellipse fill="none" stroke="#757759" cx="467.832" cy="-1117.71" rx="4.00002" ry="4.00002"/>
<ellipse fill="#757759" stroke="#757759" cx="706.418" cy="-852.883" rx="4.00002" ry="4.00002"/>
</g>
<!-- Anamnesis -->
<g id="node9" class="node"><title>Anamnesis</title>
<polyline fill="none" stroke="black" points="139.5,-617 284.5,-617 "/>
<path fill="none" stroke="black" d="M284.5,-617C290.5,-617 296.5,-623 296.5,-629"/>
<polyline fill="none" stroke="black" points="296.5,-629 296.5,-801 "/>
<path fill="none" stroke="black" d="M296.5,-801C296.5,-807 290.5,-813 284.5,-813"/>
<polyline fill="none" stroke="black" points="284.5,-813 139.5,-813 "/>
<path fill="none" stroke="black" d="M139.5,-813C133.5,-813 127.5,-807 127.5,-801"/>
<polyline fill="none" stroke="black" points="127.5,-801 127.5,-629 "/>
<path fill="none" stroke="black" d="M127.5,-629C127.5,-623 133.5,-617 139.5,-617"/>
<text text-anchor="middle" x="212" y="-796.4" font-family="Times Roman,serif" font-size="14.00">Anamnesis</text>
<polyline fill="none" stroke="black" points="127.5,-787 296.5,-787 "/>
<text text-anchor="start" x="135.5" y="-770.4" font-family="Times Roman,serif" font-size="14.00">blood_type :string</text>
<text text-anchor="start" x="135.5" y="-752.4" font-family="Times Roman,serif" font-size="14.00">rh_factor :string</text>
<text text-anchor="start" x="135.5" y="-734.4" font-family="Times Roman,serif" font-size="14.00">weight :decimal</text>
<text text-anchor="start" x="135.5" y="-716.4" font-family="Times Roman,serif" font-size="14.00">height :decimal</text>
<text text-anchor="start" x="135.5" y="-698.4" font-family="Times Roman,serif" font-size="14.00">sex :string</text>
<text text-anchor="start" x="135.5" y="-680.4" font-family="Times Roman,serif" font-size="14.00">blood_pressure :string</text>
<text text-anchor="start" x="135.5" y="-662.4" font-family="Times Roman,serif" font-size="14.00">smoking :boolean</text>
<text text-anchor="start" x="135.5" y="-644.4" font-family="Times Roman,serif" font-size="14.00">created_at :datetime</text>
<text text-anchor="start" x="135.5" y="-626.4" font-family="Times Roman,serif" font-size="14.00">updated_at :datetime</text>
</g>
<!-- Account&#45;&gt;Anamnesis -->
<g id="edge4" class="edge"><title>Account&#45;&gt;Anamnesis</title>
<path fill="none" stroke="#cdebc4" d="M262.741,-981.193C261.5,-979.446 260.253,-977.715 259,-976 252.323,-966.866 245.942,-968.177 241,-958 220.644,-916.084 212.407,-865.483 209.641,-821.332"/>
<ellipse fill="none" stroke="#cdebc4" cx="265.203" cy="-984.722" rx="4.00002" ry="4.00002"/>
<ellipse fill="#cdebc4" stroke="#cdebc4" cx="209.409" cy="-817.16" rx="4" ry="4"/>
<text text-anchor="middle" x="277.5" y="-945.4" font-family="Times Roman,serif" font-size="14.00">anamnesis</text>
</g>
<!-- AccountsCompany -->
<g id="node11" class="node"><title>AccountsCompany</title>
<polyline fill="none" stroke="black" points="427.5,-336 568.5,-336 "/>
<path fill="none" stroke="black" d="M568.5,-336C574.5,-336 580.5,-342 580.5,-348"/>
<polyline fill="none" stroke="black" points="580.5,-348 580.5,-394 "/>
<path fill="none" stroke="black" d="M580.5,-394C580.5,-400 574.5,-406 568.5,-406"/>
<polyline fill="none" stroke="black" points="568.5,-406 427.5,-406 "/>
<path fill="none" stroke="black" d="M427.5,-406C421.5,-406 415.5,-400 415.5,-394"/>
<polyline fill="none" stroke="black" points="415.5,-394 415.5,-348 "/>
<path fill="none" stroke="black" d="M415.5,-348C415.5,-342 421.5,-336 427.5,-336"/>
<text text-anchor="middle" x="498" y="-389.4" font-family="Times Roman,serif" font-size="14.00">AccountsCompany</text>
<polyline fill="none" stroke="black" points="415.5,-380 580.5,-380 "/>
<text text-anchor="start" x="423.5" y="-363.4" font-family="Times Roman,serif" font-size="14.00">created_at :datetime</text>
<text text-anchor="start" x="423.5" y="-345.4" font-family="Times Roman,serif" font-size="14.00">updated_at :datetime</text>
</g>
<!-- Account&#45;&gt;AccountsCompany -->
<g id="edge10" class="edge"><title>Account&#45;&gt;AccountsCompany</title>
<path fill="none" stroke="#d78aaf" d="M357.052,-968.566C352.93,-803.204 354.451,-589.428 385,-508 392.896,-486.955 428.456,-445.438 457.605,-413.598"/>
<ellipse fill="none" stroke="#d78aaf" cx="357.163" cy="-972.899" rx="4" ry="4"/>
<polygon fill="#d78aaf" stroke="#d78aaf" points="457.698,-413.497 467.784,-409.191 461.086,-409.819 464.474,-406.142 464.474,-406.142 464.474,-406.142 461.086,-409.819 461.165,-403.093 457.698,-413.497 457.698,-413.497"/>
</g>
<!-- TypeTelephone -->
<g id="node3" class="node"><title>TypeTelephone</title>
<polyline fill="none" stroke="black" points="887.5,-662 1028.5,-662 "/>
<path fill="none" stroke="black" d="M1028.5,-662C1034.5,-662 1040.5,-668 1040.5,-674"/>
<polyline fill="none" stroke="black" points="1040.5,-674 1040.5,-756 "/>
<path fill="none" stroke="black" d="M1040.5,-756C1040.5,-762 1034.5,-768 1028.5,-768"/>
<polyline fill="none" stroke="black" points="1028.5,-768 887.5,-768 "/>
<path fill="none" stroke="black" d="M887.5,-768C881.5,-768 875.5,-762 875.5,-756"/>
<polyline fill="none" stroke="black" points="875.5,-756 875.5,-674 "/>
<path fill="none" stroke="black" d="M875.5,-674C875.5,-668 881.5,-662 887.5,-662"/>
<text text-anchor="middle" x="958" y="-751.4" font-family="Times Roman,serif" font-size="14.00">TypeTelephone</text>
<polyline fill="none" stroke="black" points="875.5,-742 1040.5,-742 "/>
<text text-anchor="start" x="883.5" y="-725.4" font-family="Times Roman,serif" font-size="14.00">name :string</text>
<text text-anchor="start" x="883.5" y="-707.4" font-family="Times Roman,serif" font-size="14.00">enabled :boolean</text>
<text text-anchor="start" x="883.5" y="-689.4" font-family="Times Roman,serif" font-size="14.00">created_at :datetime</text>
<text text-anchor="start" x="883.5" y="-671.4" font-family="Times Roman,serif" font-size="14.00">updated_at :datetime</text>
</g>
<!-- TypeTelephone&#45;&gt;Telephone -->
<g id="edge14" class="edge"><title>TypeTelephone&#45;&gt;Telephone</title>
<path fill="none" stroke="#5bf2da" d="M940.371,-653.95C925.654,-610.197 901.49,-551.546 867,-508 843.209,-477.961 811.355,-451.036 780.951,-429.17"/>
<ellipse fill="none" stroke="#5bf2da" cx="941.665" cy="-657.865" rx="4.00001" ry="4.00001"/>
<polygon fill="#5bf2da" stroke="#5bf2da" points="780.587,-428.913 775.02,-419.465 776.504,-426.026 772.422,-423.139 772.422,-423.139 772.422,-423.139 776.504,-426.026 769.824,-426.813 780.587,-428.913 780.587,-428.913"/>
</g>
<!-- Company&#45;&gt;History -->
<g id="edge16" class="edge"><title>Company&#45;&gt;History</title>
<path fill="none" stroke="#a69e29" d="M389.373,-518.328C376.28,-494.623 363.54,-471.556 352.175,-450.979"/>
<ellipse fill="none" stroke="#a69e29" cx="391.479" cy="-522.14" rx="4.00002" ry="4.00002"/>
<polygon fill="#a69e29" stroke="#a69e29" points="352.058,-450.768 351.162,-439.839 349.64,-446.391 347.223,-442.014 347.223,-442.014 347.223,-442.014 349.64,-446.391 343.284,-444.19 352.058,-450.768 352.058,-450.768"/>
</g>
<!-- Company&#45;&gt;Telephone -->
<g id="edge18" class="edge"><title>Company&#45;&gt;Telephone</title>
<path fill="none" stroke="#6570b1" d="M606.628,-505.038C609.768,-499.288 612.896,-493.6 616,-488 617.822,-484.713 619.685,-481.381 621.576,-478.024"/>
<ellipse fill="none" stroke="#6570b1" cx="604.558" cy="-508.839" rx="4.00002" ry="4.00002"/>
<polygon fill="#6570b1" stroke="#6570b1" points="621.709,-477.789 630.554,-471.308 624.174,-473.439 626.639,-469.089 626.639,-469.089 626.639,-469.089 624.174,-473.439 622.724,-466.87 621.709,-477.789 621.709,-477.789"/>
</g>
<!-- Company&#45;&gt;AccountsCompany -->
<g id="edge20" class="edge"><title>Company&#45;&gt;AccountsCompany</title>
<path fill="none" stroke="#11e25b" d="M498,-500.586C498,-468.838 498,-439.146 498,-416.216"/>
<ellipse fill="none" stroke="#11e25b" cx="498" cy="-504.936" rx="4" ry="4"/>
<polygon fill="#11e25b" stroke="#11e25b" points="498,-416.172 502.5,-406.172 498,-411.172 498,-406.172 498,-406.172 498,-406.172 498,-411.172 493.5,-406.172 498,-416.172 498,-416.172"/>
</g>
<!-- Exam -->
<g id="node5" class="node"><title>Exam</title>
<polyline fill="none" stroke="black" points="223,-1 393,-1 "/>
<path fill="none" stroke="black" d="M393,-1C399,-1 405,-7 405,-13"/>
<polyline fill="none" stroke="black" points="405,-13 405,-221 "/>
<path fill="none" stroke="black" d="M405,-221C405,-227 399,-233 393,-233"/>
<polyline fill="none" stroke="black" points="393,-233 223,-233 "/>
<path fill="none" stroke="black" d="M223,-233C217,-233 211,-227 211,-221"/>
<polyline fill="none" stroke="black" points="211,-221 211,-13 "/>
<path fill="none" stroke="black" d="M211,-13C211,-7 217,-1 223,-1"/>
<text text-anchor="middle" x="308" y="-216.4" font-family="Times Roman,serif" font-size="14.00">Exam</text>
<polyline fill="none" stroke="black" points="211,-207 405,-207 "/>
<text text-anchor="start" x="219" y="-190.4" font-family="Times Roman,serif" font-size="14.00">title :string</text>
<text text-anchor="start" x="219" y="-172.4" font-family="Times Roman,serif" font-size="14.00">description :text</text>
<text text-anchor="start" x="219" y="-154.4" font-family="Times Roman,serif" font-size="14.00">emission :datetime</text>
<text text-anchor="start" x="219" y="-136.4" font-family="Times Roman,serif" font-size="14.00">doctor :string</text>
<text text-anchor="start" x="219" y="-118.4" font-family="Times Roman,serif" font-size="14.00">crm :string</text>
<text text-anchor="start" x="219" y="-100.4" font-family="Times Roman,serif" font-size="14.00">pdf_file_name :string</text>
<text text-anchor="start" x="219" y="-82.4" font-family="Times Roman,serif" font-size="14.00">pdf_content_type :string</text>
<text text-anchor="start" x="219" y="-64.4" font-family="Times Roman,serif" font-size="14.00">pdf_file_size :integer</text>
<text text-anchor="start" x="219" y="-46.4" font-family="Times Roman,serif" font-size="14.00">pdf_updated_at :datetime</text>
<text text-anchor="start" x="219" y="-28.4" font-family="Times Roman,serif" font-size="14.00">created_at :datetime</text>
<text text-anchor="start" x="219" y="-10.4" font-family="Times Roman,serif" font-size="14.00">updated_at :datetime</text>
</g>
<!-- History&#45;&gt;Exam -->
<g id="edge22" class="edge"><title>History&#45;&gt;Exam</title>
<path fill="none" stroke="#58bcf1" d="M308,-291.54C308,-276.244 308,-259.874 308,-243.513"/>
<ellipse fill="none" stroke="#58bcf1" cx="308" cy="-295.909" rx="4" ry="4"/>
<polygon fill="#58bcf1" stroke="#58bcf1" points="308,-243.338 312.5,-233.338 308,-238.338 308,-233.338 308,-233.338 308,-233.338 308,-238.338 303.5,-233.338 308,-243.338 308,-243.338"/>
</g>
<!-- Anamnesis&#45;&gt;Account -->
<g id="edge24" class="edge"><title>Anamnesis&#45;&gt;Account</title>
<path fill="none" stroke="#208825" d="M201.022,-821.218C201.18,-866.166 208.079,-917.403 232,-958 239.321,-970.426 249.383,-965.252 259,-976 259.62,-976.692 260.237,-977.389 260.851,-978.09"/>
<ellipse fill="none" stroke="#208825" cx="201.043" cy="-817.193" rx="4" ry="4"/>
<polygon fill="#208825" stroke="#208825" points="260.876,-978.119 263.906,-988.658 264.108,-981.934 267.34,-985.75 267.34,-985.75 267.34,-985.75 264.108,-981.934 270.774,-982.841 260.876,-978.119 260.876,-978.119"/>
</g>
<!-- TypeUser -->
<g id="node10" class="node"><title>TypeUser</title>
<polyline fill="none" stroke="black" points="687.5,-1130 828.5,-1130 "/>
<path fill="none" stroke="black" d="M828.5,-1130C834.5,-1130 840.5,-1136 840.5,-1142"/>
<polyline fill="none" stroke="black" points="840.5,-1142 840.5,-1224 "/>
<path fill="none" stroke="black" d="M840.5,-1224C840.5,-1230 834.5,-1236 828.5,-1236"/>
<polyline fill="none" stroke="black" points="828.5,-1236 687.5,-1236 "/>
<path fill="none" stroke="black" d="M687.5,-1236C681.5,-1236 675.5,-1230 675.5,-1224"/>
<polyline fill="none" stroke="black" points="675.5,-1224 675.5,-1142 "/>
<path fill="none" stroke="black" d="M675.5,-1142C675.5,-1136 681.5,-1130 687.5,-1130"/>
<text text-anchor="middle" x="758" y="-1219.4" font-family="Times Roman,serif" font-size="14.00">TypeUser</text>
<polyline fill="none" stroke="black" points="675.5,-1210 840.5,-1210 "/>
<text text-anchor="start" x="683.5" y="-1193.4" font-family="Times Roman,serif" font-size="14.00">name :string</text>
<text text-anchor="start" x="683.5" y="-1175.4" font-family="Times Roman,serif" font-size="14.00">enabled :boolean</text>
<text text-anchor="start" x="683.5" y="-1157.4" font-family="Times Roman,serif" font-size="14.00">created_at :datetime</text>
<text text-anchor="start" x="683.5" y="-1139.4" font-family="Times Roman,serif" font-size="14.00">updated_at :datetime</text>
</g>
<!-- TypeUser&#45;&gt;User -->
<g id="edge26" class="edge"><title>TypeUser&#45;&gt;User</title>
<path fill="none" stroke="#317591" d="M758,-1121.59C758,-1055.23 758,-947.147 758,-859.096"/>
<ellipse fill="none" stroke="#317591" cx="758" cy="-1125.77" rx="4" ry="4"/>
<polygon fill="#317591" stroke="#317591" points="758,-859.008 762.5,-849.008 758,-854.008 758,-849.008 758,-849.008 758,-849.008 758,-854.008 753.5,-849.008 758,-859.008 758,-859.008"/>
</g>
</g>
</svg>
