<?xml version="1.0" encoding="UTF-8" standalone="no"?>
<!DOCTYPE svg PUBLIC "-//W3C//DTD SVG 1.1//EN"
 "http://www.w3.org/Graphics/SVG/1.1/DTD/svg11.dtd">
<!-- Generated by graphviz version 2.26.3 (20100126.1600)
 -->
<!-- Title: models_diagram Pages: 1 -->
<svg width="804pt" height="638pt"
 viewBox="0.00 0.00 804.00 638.00" xmlns="http://www.w3.org/2000/svg" xmlns:xlink="http://www.w3.org/1999/xlink">
<g id="graph1" class="graph" transform="scale(1 1) rotate(0) translate(4 634)">
<title>models_diagram</title>
<polygon fill="white" stroke="white" points="-4,5 -4,-634 801,-634 801,5 -4,5"/>
<!-- _diagram_info -->
<g id="node1" class="node"><title>_diagram_info</title>
<text text-anchor="start" x="8" y="-552.8" font-family="Times Roman,serif" font-size="13.00">Models diagram</text>
<text text-anchor="start" x="8" y="-535.8" font-family="Times Roman,serif" font-size="13.00">Date: May 05 2012 &#45; 13:58</text>
<text text-anchor="start" x="8" y="-518.8" font-family="Times Roman,serif" font-size="13.00">Migration version: 20120424221105</text>
<text text-anchor="start" x="8" y="-501.8" font-family="Times Roman,serif" font-size="13.00">Generated by RailRoady 1.0.7</text>
<text text-anchor="start" x="8" y="-484.8" font-family="Times Roman,serif" font-size="13.00">http://railroady.prestonlee.com</text>
</g>
<!-- Account -->
<g id="node2" class="node"><title>Account</title>
<polyline fill="none" stroke="black" points="461.5,-415 602.5,-415 "/>
<path fill="none" stroke="black" d="M602.5,-415C608.5,-415 614.5,-421 614.5,-427"/>
<polyline fill="none" stroke="black" points="614.5,-427 614.5,-617 "/>
<path fill="none" stroke="black" d="M614.5,-617C614.5,-623 608.5,-629 602.5,-629"/>
<polyline fill="none" stroke="black" points="602.5,-629 461.5,-629 "/>
<path fill="none" stroke="black" d="M461.5,-629C455.5,-629 449.5,-623 449.5,-617"/>
<polyline fill="none" stroke="black" points="449.5,-617 449.5,-427 "/>
<path fill="none" stroke="black" d="M449.5,-427C449.5,-421 455.5,-415 461.5,-415"/>
<text text-anchor="middle" x="532" y="-612.4" font-family="Times Roman,serif" font-size="14.00">Account</text>
<polyline fill="none" stroke="black" points="449.5,-603 614.5,-603 "/>
<text text-anchor="start" x="457.5" y="-586.4" font-family="Times Roman,serif" font-size="14.00">cpf :string</text>
<text text-anchor="start" x="457.5" y="-568.4" font-family="Times Roman,serif" font-size="14.00">address :string</text>
<text text-anchor="start" x="457.5" y="-550.4" font-family="Times Roman,serif" font-size="14.00">number :string</text>
<text text-anchor="start" x="457.5" y="-532.4" font-family="Times Roman,serif" font-size="14.00">complement :string</text>
<text text-anchor="start" x="457.5" y="-514.4" font-family="Times Roman,serif" font-size="14.00">neighborhood :string</text>
<text text-anchor="start" x="457.5" y="-496.4" font-family="Times Roman,serif" font-size="14.00">city :string</text>
<text text-anchor="start" x="457.5" y="-478.4" font-family="Times Roman,serif" font-size="14.00">state :string</text>
<text text-anchor="start" x="457.5" y="-460.4" font-family="Times Roman,serif" font-size="14.00">country :string</text>
<text text-anchor="start" x="457.5" y="-442.4" font-family="Times Roman,serif" font-size="14.00">created_at :datetime</text>
<text text-anchor="start" x="457.5" y="-424.4" font-family="Times Roman,serif" font-size="14.00">updated_at :datetime</text>
</g>
<!-- Telephone -->
<g id="node4" class="node"><title>Telephone</title>
<polyline fill="none" stroke="black" points="342,-145 492,-145 "/>
<path fill="none" stroke="black" d="M492,-145C498,-145 504,-151 504,-157"/>
<polyline fill="none" stroke="black" points="504,-157 504,-329 "/>
<path fill="none" stroke="black" d="M504,-329C504,-335 498,-341 492,-341"/>
<polyline fill="none" stroke="black" points="492,-341 342,-341 "/>
<path fill="none" stroke="black" d="M342,-341C336,-341 330,-335 330,-329"/>
<polyline fill="none" stroke="black" points="330,-329 330,-157 "/>
<path fill="none" stroke="black" d="M330,-157C330,-151 336,-145 342,-145"/>
<text text-anchor="middle" x="417" y="-324.4" font-family="Times Roman,serif" font-size="14.00">Telephone</text>
<polyline fill="none" stroke="black" points="330,-315 504,-315 "/>
<text text-anchor="start" x="338" y="-298.4" font-family="Times Roman,serif" font-size="14.00">ddd :string</text>
<text text-anchor="start" x="338" y="-280.4" font-family="Times Roman,serif" font-size="14.00">tel :string</text>
<text text-anchor="start" x="338" y="-262.4" font-family="Times Roman,serif" font-size="14.00">branch_line :string</text>
<text text-anchor="start" x="338" y="-244.4" font-family="Times Roman,serif" font-size="14.00">published :boolean</text>
<text text-anchor="start" x="338" y="-226.4" font-family="Times Roman,serif" font-size="14.00">enabled :boolean</text>
<text text-anchor="start" x="338" y="-208.4" font-family="Times Roman,serif" font-size="14.00">published_at :datetime</text>
<text text-anchor="start" x="338" y="-190.4" font-family="Times Roman,serif" font-size="14.00">deleted_at :datetime</text>
<text text-anchor="start" x="338" y="-172.4" font-family="Times Roman,serif" font-size="14.00">created_at :datetime</text>
<text text-anchor="start" x="338" y="-154.4" font-family="Times Roman,serif" font-size="14.00">updated_at :datetime</text>
</g>
<!-- Account&#45;&gt;Telephone -->
<g id="edge6" class="edge"><title>Account&#45;&gt;Telephone</title>
<path fill="none" stroke="#a8e108" d="M483.971,-405.477C476.454,-387.24 468.715,-368.465 461.287,-350.443"/>
<polygon fill="#a8e108" stroke="#a8e108" points="484.056,-405.684 483.706,-416.644 485.961,-410.307 487.867,-414.929 487.867,-414.929 487.867,-414.929 485.961,-410.307 492.027,-413.214 484.056,-405.684 484.056,-405.684"/>
<polygon fill="#a8e108" stroke="#a8e108" points="461.244,-350.341 461.594,-339.38 459.339,-345.718 457.434,-341.095 457.434,-341.095 457.434,-341.095 459.339,-345.718 453.273,-342.81 461.244,-350.341 461.244,-350.341"/>
</g>
<!-- AccountsTelephone -->
<g id="node5" class="node"><title>AccountsTelephone</title>
<polyline fill="none" stroke="black" points="403.5,-1 544.5,-1 "/>
<path fill="none" stroke="black" d="M544.5,-1C550.5,-1 556.5,-7 556.5,-13"/>
<polyline fill="none" stroke="black" points="556.5,-13 556.5,-59 "/>
<path fill="none" stroke="black" d="M556.5,-59C556.5,-65 550.5,-71 544.5,-71"/>
<polyline fill="none" stroke="black" points="544.5,-71 403.5,-71 "/>
<path fill="none" stroke="black" d="M403.5,-71C397.5,-71 391.5,-65 391.5,-59"/>
<polyline fill="none" stroke="black" points="391.5,-59 391.5,-13 "/>
<path fill="none" stroke="black" d="M391.5,-13C391.5,-7 397.5,-1 403.5,-1"/>
<text text-anchor="middle" x="474" y="-54.4" font-family="Times Roman,serif" font-size="14.00">AccountsTelephone</text>
<polyline fill="none" stroke="black" points="391.5,-45 556.5,-45 "/>
<text text-anchor="start" x="399.5" y="-28.4" font-family="Times Roman,serif" font-size="14.00">created_at :datetime</text>
<text text-anchor="start" x="399.5" y="-10.4" font-family="Times Roman,serif" font-size="14.00">updated_at :datetime</text>
</g>
<!-- Account&#45;&gt;AccountsTelephone -->
<g id="edge4" class="edge"><title>Account&#45;&gt;AccountsTelephone</title>
<path fill="none" stroke="#795357" d="M540.351,-406.816C543.204,-322.523 540.303,-206.215 513,-108 510.4,-98.6478 506.413,-89.1623 501.963,-80.28"/>
<ellipse fill="none" stroke="#795357" cx="540.203" cy="-410.874" rx="4" ry="4"/>
<polygon fill="#795357" stroke="#795357" points="501.874,-80.1118 501.174,-69.1682 499.535,-75.6923 497.197,-71.2728 497.197,-71.2728 497.197,-71.2728 499.535,-75.6923 493.219,-73.3775 501.874,-80.1118 501.874,-80.1118"/>
</g>
<!-- User -->
<g id="node6" class="node"><title>User</title>
<polyline fill="none" stroke="black" points="599,-109 775,-109 "/>
<path fill="none" stroke="black" d="M775,-109C781,-109 787,-115 787,-121"/>
<polyline fill="none" stroke="black" points="787,-121 787,-365 "/>
<path fill="none" stroke="black" d="M787,-365C787,-371 781,-377 775,-377"/>
<polyline fill="none" stroke="black" points="775,-377 599,-377 "/>
<path fill="none" stroke="black" d="M599,-377C593,-377 587,-371 587,-365"/>
<polyline fill="none" stroke="black" points="587,-365 587,-121 "/>
<path fill="none" stroke="black" d="M587,-121C587,-115 593,-109 599,-109"/>
<text text-anchor="middle" x="687" y="-360.4" font-family="Times Roman,serif" font-size="14.00">User</text>
<polyline fill="none" stroke="black" points="587,-351 787,-351 "/>
<text text-anchor="start" x="595" y="-334.4" font-family="Times Roman,serif" font-size="14.00">name :string</text>
<text text-anchor="start" x="595" y="-316.4" font-family="Times Roman,serif" font-size="14.00">login :string</text>
<text text-anchor="start" x="595" y="-298.4" font-family="Times Roman,serif" font-size="14.00">email :string</text>
<text text-anchor="start" x="595" y="-280.4" font-family="Times Roman,serif" font-size="14.00">crypted_password :string</text>
<text text-anchor="start" x="595" y="-262.4" font-family="Times Roman,serif" font-size="14.00">password_salt :string</text>
<text text-anchor="start" x="595" y="-244.4" font-family="Times Roman,serif" font-size="14.00">persistence_token :string</text>
<text text-anchor="start" x="595" y="-226.4" font-family="Times Roman,serif" font-size="14.00">last_request_at :datetime</text>
<text text-anchor="start" x="595" y="-208.4" font-family="Times Roman,serif" font-size="14.00">current_login_at :datetime</text>
<text text-anchor="start" x="595" y="-190.4" font-family="Times Roman,serif" font-size="14.00">last_login_at :datetime</text>
<text text-anchor="start" x="595" y="-172.4" font-family="Times Roman,serif" font-size="14.00">current_login_ip :string</text>
<text text-anchor="start" x="595" y="-154.4" font-family="Times Roman,serif" font-size="14.00">last_login_ip :string</text>
<text text-anchor="start" x="595" y="-136.4" font-family="Times Roman,serif" font-size="14.00">created_at :datetime</text>
<text text-anchor="start" x="595" y="-118.4" font-family="Times Roman,serif" font-size="14.00">updated_at :datetime</text>
</g>
<!-- Account&#45;&gt;User -->
<g id="edge2" class="edge"><title>Account&#45;&gt;User</title>
<path fill="none" stroke="#2a4e6f" d="M595.507,-407.688C599.756,-400.038 604.065,-392.284 608.377,-384.521"/>
<ellipse fill="none" stroke="#2a4e6f" cx="593.426" cy="-411.433" rx="4.00002" ry="4.00002"/>
<ellipse fill="#2a4e6f" stroke="#2a4e6f" cx="610.395" cy="-380.889" rx="4.00002" ry="4.00002"/>
</g>
<!-- TypeTelephone -->
<g id="node3" class="node"><title>TypeTelephone</title>
<polyline fill="none" stroke="black" points="279.5,-469 420.5,-469 "/>
<path fill="none" stroke="black" d="M420.5,-469C426.5,-469 432.5,-475 432.5,-481"/>
<polyline fill="none" stroke="black" points="432.5,-481 432.5,-563 "/>
<path fill="none" stroke="black" d="M432.5,-563C432.5,-569 426.5,-575 420.5,-575"/>
<polyline fill="none" stroke="black" points="420.5,-575 279.5,-575 "/>
<path fill="none" stroke="black" d="M279.5,-575C273.5,-575 267.5,-569 267.5,-563"/>
<polyline fill="none" stroke="black" points="267.5,-563 267.5,-481 "/>
<path fill="none" stroke="black" d="M267.5,-481C267.5,-475 273.5,-469 279.5,-469"/>
<text text-anchor="middle" x="350" y="-558.4" font-family="Times Roman,serif" font-size="14.00">TypeTelephone</text>
<polyline fill="none" stroke="black" points="267.5,-549 432.5,-549 "/>
<text text-anchor="start" x="275.5" y="-532.4" font-family="Times Roman,serif" font-size="14.00">name :string</text>
<text text-anchor="start" x="275.5" y="-514.4" font-family="Times Roman,serif" font-size="14.00">enabled :boolean</text>
<text text-anchor="start" x="275.5" y="-496.4" font-family="Times Roman,serif" font-size="14.00">created_at :datetime</text>
<text text-anchor="start" x="275.5" y="-478.4" font-family="Times Roman,serif" font-size="14.00">updated_at :datetime</text>
</g>
<!-- TypeTelephone&#45;&gt;Telephone -->
<g id="edge8" class="edge"><title>TypeTelephone&#45;&gt;Telephone</title>
<path fill="none" stroke="#2a24da" d="M364.63,-461.08C372.364,-428.871 382.091,-388.369 391.056,-351.037"/>
<ellipse fill="none" stroke="#2a24da" cx="363.694" cy="-464.976" rx="4.00001" ry="4.00001"/>
<polygon fill="#2a24da" stroke="#2a24da" points="391.104,-350.837 397.814,-342.164 392.271,-345.975 393.439,-341.114 393.439,-341.114 393.439,-341.114 392.271,-345.975 389.063,-340.063 391.104,-350.837 391.104,-350.837"/>
</g>
<!-- Telephone&#45;&gt;AccountsTelephone -->
<g id="edge10" class="edge"><title>Telephone&#45;&gt;AccountsTelephone</title>
<path fill="none" stroke="#77e013" d="M446.124,-137.234C451.548,-117.536 456.942,-97.9472 461.519,-81.324"/>
<ellipse fill="none" stroke="#77e013" cx="445.06" cy="-141.099" rx="4.00001" ry="4.00001"/>
<polygon fill="#77e013" stroke="#77e013" points="461.602,-81.0236 468.596,-72.5771 462.93,-76.203 464.257,-71.3824 464.257,-71.3824 464.257,-71.3824 462.93,-76.203 459.918,-70.1877 461.602,-81.0236 461.602,-81.0236"/>
</g>
<!-- TypeUser -->
<g id="node7" class="node"><title>TypeUser</title>
<polyline fill="none" stroke="black" points="643.5,-469 784.5,-469 "/>
<path fill="none" stroke="black" d="M784.5,-469C790.5,-469 796.5,-475 796.5,-481"/>
<polyline fill="none" stroke="black" points="796.5,-481 796.5,-563 "/>
<path fill="none" stroke="black" d="M796.5,-563C796.5,-569 790.5,-575 784.5,-575"/>
<polyline fill="none" stroke="black" points="784.5,-575 643.5,-575 "/>
<path fill="none" stroke="black" d="M643.5,-575C637.5,-575 631.5,-569 631.5,-563"/>
<polyline fill="none" stroke="black" points="631.5,-563 631.5,-481 "/>
<path fill="none" stroke="black" d="M631.5,-481C631.5,-475 637.5,-469 643.5,-469"/>
<text text-anchor="middle" x="714" y="-558.4" font-family="Times Roman,serif" font-size="14.00">TypeUser</text>
<polyline fill="none" stroke="black" points="631.5,-549 796.5,-549 "/>
<text text-anchor="start" x="639.5" y="-532.4" font-family="Times Roman,serif" font-size="14.00">name :string</text>
<text text-anchor="start" x="639.5" y="-514.4" font-family="Times Roman,serif" font-size="14.00">enabled :boolean</text>
<text text-anchor="start" x="639.5" y="-496.4" font-family="Times Roman,serif" font-size="14.00">created_at :datetime</text>
<text text-anchor="start" x="639.5" y="-478.4" font-family="Times Roman,serif" font-size="14.00">updated_at :datetime</text>
</g>
<!-- TypeUser&#45;&gt;User -->
<g id="edge12" class="edge"><title>TypeUser&#45;&gt;User</title>
<path fill="none" stroke="#65e054" d="M708.065,-460.668C705.951,-438.827 703.472,-413.21 700.971,-387.37"/>
<ellipse fill="none" stroke="#65e054" cx="708.473" cy="-464.884" rx="4" ry="4"/>
<polygon fill="#65e054" stroke="#65e054" points="700.938,-387.03 704.454,-376.643 700.457,-382.053 699.975,-377.076 699.975,-377.076 699.975,-377.076 700.457,-382.053 695.496,-377.51 700.938,-387.03 700.938,-387.03"/>
</g>
</g>
</svg>
